<?xml version="1.0" encoding="utf-8"?>
<!-- Generator: Adobe Illustrator 24.0.0, SVG Export Plug-In . SVG Version: 6.00 Build 0)  -->
<svg version="1.1" id="Layer_1" xmlns="http://www.w3.org/2000/svg" xmlns:xlink="http://www.w3.org/1999/xlink" x="0px" y="0px"
	 viewBox="0 0 231.11 243.58" style="enable-background:new 0 0 231.11 243.58;" xml:space="preserve">
<style type="text/css">
	.st0{fill:#B38C4E;}
</style>
<g>
	<path class="st0" d="M230.11,120.76c-0.28,2.38-0.55,4.76-0.83,7.15C229.56,125.53,229.84,123.14,230.11,120.76
		c0.3-7.16-2.38-13.83-3.41-20.77c-1.35-9.24-4.34-17.79-9.67-25.6c-3.91-5.73-5.99-11.87,0.51-17.52c0.12-0.1,0.19-0.27,0.26-0.42
		c0.78-1.65,2.06-3.68,0.82-5.1c-1.41-1.61-3.64,0.11-5.53,0.15c-0.49,0.01-1.04,0.77-1.44,1.27c-2.82,3.49-5.77,3.66-8.89,0.41
		c-0.25-0.16-0.52-0.27-0.81-0.33c-0.43,0.28-0.92,0.78-1.34,1.05c-0.14,0.09-0.27,0.15-0.4,0.18c0.12-0.02,0.25-0.09,0.4-0.18
		c0.42-0.27,0.91-0.76,1.34-1.05c-0.63-4.12-4.05-5.88-6.85-8.17c-1.61-2.81-4.38-4.16-7.05-5.63c-0.39-0.9-1.2-1.1-2.06-1.2
		c-2.95-2.5-5.59-5.57-8.91-7.38c-6.82-3.72-13.24-8.54-21.33-9.43c-0.28-0.11-0.56-0.1-0.84,0.04c-0.69-1.76-2.27-2.39-3.88-2.78
		c-6.09-1.48-12.14-3.23-18.31-4.21c-14.3-2.27-28.62-1.94-42.83,1c2.83-3.98-0.36-7.89-0.13-11.84c1.62-3.22-0.92-3.79-2.54-2.78
		c-2.37,1.48-5.4,2.64-6.39,5.79c-0.74,0.75-1.48,1.5-2.22,2.26c-0.07,0.09-0.15,0.18-0.22,0.28c-0.4,0.16-0.76,0.37-0.77,0.96
		c-0.3,0.39-0.61,0.78-0.91,1.18c-1.64,0.04-2.79,0.91-3.61,2.25c-5.37,8.71-13.3,14.36-22.26,18.81c-0.72,0.35-1.27,1.04-1.9,1.57
		l-0.34,0.19c0,0,0.07,0.39,0.07,0.39c-0.2,0.31-0.41,0.62-0.61,0.93c-6.58,3.08-11.69,7.91-16.13,13.55
		c-6.57,4.87-10.18,12.15-14.59,18.66c-9,13.29-14.08,28.2-16.14,44.12c-3.38,26.11,0.24,50.91,13.92,73.8
		c0.46,1.72,1.38,3.16,2.71,4.35c0,0.25,0.11,0.45,0.3,0.6c4.05,8.11,10.35,14.48,16.72,20.66c2.25,2.18,5.65,3.29,8.05,5.55
		c1.97,1.85,2.01,3.67-0.85,4.6c-2.87,0.93-5.39,2.46-7.97,3.92c-4.65,0.76-8.31,5.95-13.81,3.06c-0.54-0.28-1.02,0.56-1.53,0.97
		c-5.9,4.81-10.83,10.76-18.25,14.62c2.54,0.5,23.4-2.21,24.58-2.89c0.89-0.52,1.94-1.23,1.63-2.25c-1.31-4.39,2.26-4.71,4.75-5.99
		c3.52-1.81,7.02-3.66,10.52-5.5c0.92-0.34,1.97-0.51,2.75-1.05c3.57-2.47,6.63-1.96,10.26,0.4c4.41,2.87,9.3,5.1,14.16,7.18
		c16.19,6.92,33.28,8.86,50.71,8.81c5.98-0.02,11.88-0.53,17.65-2.22c5.5-2.75,12.12-1.69,17.42-5.13
		c5.65-1.45,10.9-3.87,15.86-6.87c2.64-1.6,4.68-1.67,6.98,0.77c2.98,3.16,6.79,5.46,9.63,9.02c1.03-2.19-0.11-3.46-1.07-4.81
		c-1.52-2.16-2.86-4.46-4.5-6.52c-1.86-2.34-1.49-3.91,0.86-5.72c2.57-1.97,5.78-3.39,7.04-6.77c7.12-3.41,11.81-9.22,15.63-15.88
		c0.3,0,0.54-0.11,0.73-0.35l0.31-0.04c0,0,0.04-0.31,0.05-0.32c0.74-0.84,1.49-1.68,2.23-2.52c1.28-0.97,1.68-2.43,2.1-3.87
		c0.06-0.56,0.11-1.12,0.17-1.68c7.71-7.96,11.86-17.77,14.65-28.28c0.13-0.59,0.27-1.18,0.4-1.77c3-6.96,3.46-14.48,4.31-21.82
		C230.95,131.96,231.82,126.3,230.11,120.76z M191.76,59.11l0.08,0.09C191.84,59.2,191.76,59.11,191.76,59.11
		C191.76,59.11,191.76,59.11,191.76,59.11z M128.84,19.17l0.01,0.01L128.84,19.17L128.84,19.17z M95.25,27.84
		c-1.17,0.92-2.74,1.35-4.02,2.12C92.51,29.19,94.07,28.76,95.25,27.84z M89.95,30.99c6.19-0.95,12.38-1.9,18.57-2.85
		c4.53,0.01,9.06,0.02,13.58,0.04c5.57,0.75,11.14,1.5,16.71,2.26c0.75,0.19,1.5,0.38,2.26,0.57l0,0c0,0,0.2,0.16,0.2,0.16
		l0.25-0.07c13.09,4.15,25.22,10.21,36.43,18.13c3.94,3.77,7.77,7.66,11.84,11.28c2.39,2.13,2.05,3.89-0.57,4.81
		c-4.88,1.73-8.29,5.32-12.13,8.44c-6.15,5.01-13.65,6.41-21.21,7.55c0,0,0,0,0,0c-3.91,0.29-7.36,2.1-10.99,3.3
		c-1.81,0.06-3.49,0.52-5,1.54c-8.67,3.76-17.35,7.52-26.02,11.27c0,0,0,0,0,0c-1.71,0.05-4.01,0.72-4.3-1.75
		c-0.27-2.31-2-3.62-2.77-5.52c-1.51-2.79-3.02-5.58-4.53-8.37c-1.67,1.11-2.7,2.72-3.66,4.46c0.96-1.74,2-3.35,3.66-4.46
		c-0.8-0.29-1.61-0.57-2.41-0.86c-0.08-0.58-0.17-1.16-0.25-1.74c-0.61-0.63-1.23-1.25-1.84-1.88c-2.21-0.86-2.5-2.76-2.9-4.8
		c-0.34-1.76-1.13-3.5-2.88-4.49c-0.5-1.58-1.01-3.16-1.51-4.74c0.55-2.97,2.64-5.66-0.35-8.93c-1.86-2.04,2.06-5.48-0.11-8.31
		c-0.1-1.31-0.21-2.61-0.31-3.92c1.01-2.55,2.16-5-0.5-7.45C87.95,33.5,88.63,32.01,89.95,30.99z M151.23,111.27
		c-0.17-0.05-0.4-0.08-0.57-0.13c-0.25,0.15-0.49,0.31-0.73,0.46c0.24-0.15,0.48-0.31,0.72-0.46
		C150.83,111.19,151.06,111.22,151.23,111.27z M137.46,124.85c0.71,0.2,0.91,0.96,0.98,1.71c-0.04,0.51-0.14,1.07-0.5,1.33
		c0.36-0.26,0.46-0.82,0.5-1.33C138.37,125.81,138.17,125.05,137.46,124.85z M125.41,150.42c0.27,0.76,0.23,1.39-0.31,1.92
		C125.63,151.82,125.68,151.19,125.41,150.42z M123.89,153.06l-0.09,0.1C123.8,153.16,123.89,153.06,123.89,153.06z M123.55,129.94
		c-0.26,0.31-0.49,0.69-0.68,1.16h0C123.06,130.63,123.29,130.25,123.55,129.94z M89.69,65.99L89.69,65.99
		c-1.35-0.69-3.02-1.13-4.13-2.08C86.67,64.86,88.34,65.3,89.69,65.99z M82.88,108.14C82.88,108.14,82.88,108.14,82.88,108.14
		l-0.02-0.02C82.86,108.12,82.88,108.14,82.88,108.14z M89.83,116.09c0.34-0.99,0.69-1.98,1.03-2.96
		C90.51,114.11,90.17,115.1,89.83,116.09c-3.37-0.11-6.1-1.42-8.63-3.16C83.72,114.67,86.46,115.98,89.83,116.09z M77.88,81.12
		L77.88,81.12c-0.03-0.24-0.06-0.47-0.1-0.69C77.82,80.65,77.85,80.89,77.88,81.12z M68.88,41.16
		C68.88,41.16,68.88,41.16,68.88,41.16c-0.11-0.3-0.2-0.62-0.35-0.9C68.68,40.54,68.77,40.85,68.88,41.16z M69.02,159.2
		c2.66-2.88,5.83-2.64,9.03-1.27c8.36,3.57,17.25,3.96,26.1,4.43c9.04,0.48,10.07,1.2,12.78,10.32c0.36,1.21,1.15,2.3,1.74,3.45
		c0,0,0,0,0,0c-0.17,0.73-0.34,1.46-0.51,2.19c0,0,0,0,0,0c0.34,1.78,0.68,3.56,1.03,5.34c-6.22,3.12-12.43,6.24-18.65,9.36
		c-4.98,1.31-9.46,3.88-13.82,6.38c-2.66,1.53-3.12,0.4-4.49-1.16c-2.44-2.79-3.39-6.85-7.16-8.5c0.04-1.01,0.23-2.08-0.84-2.75
		c-1.06-7.63-4.24-14.64-6.48-21.92h0C68.07,163.08,67.71,160.96,69.02,159.2z M71.74,188.19c-0.31,0.25-0.58,0.51-0.79,0.8
		C71.16,188.7,71.43,188.43,71.74,188.19z M61.95,81.08c0,0-0.05,0.05-0.1,0.09L61.95,81.08z M61.81,81.22L61.81,81.22
		c-0.5,0.86-1.01,1.58-1.54,2.15C60.79,82.79,61.3,82.07,61.81,81.22z M58.73,92.92C58.73,92.92,58.73,92.92,58.73,92.92
		c-0.13-0.23-0.24-0.48-0.41-0.68C58.49,92.44,58.6,92.69,58.73,92.92z M55.43,69.47c0.83-0.21,1.74-0.44,2.07-1.22
		C57.17,69.04,56.26,69.26,55.43,69.47c-0.43,0.02-0.89-0.03-1.16-0.26C54.54,69.45,55,69.49,55.43,69.47z M52.21,222.33
		c0.29-0.16,0.37-0.56,0.3-0.97c-0.22-0.49-0.54-0.9-1-0.96c0.46,0.05,0.77,0.47,1,0.96C52.58,221.77,52.5,222.17,52.21,222.33z
		 M55.76,210c-4.71-5.56-10.59-9.82-15.99-14.61c-0.62,0.27-1.18,0.56-1.62,0.9c0.45-0.34,1-0.63,1.62-0.9
		c-0.62-0.77-1.23-1.55-1.85-2.32c-2.64-3.8-5.08-7.76-7.97-11.36c-7.03-8.76-9.43-19.54-13.35-29.66
		c-1.61,0.58-2.69,1.74-2.68,2.96c-0.01-1.22,1.07-2.38,2.68-2.96c-0.16-0.7-0.31-1.4-0.47-2.1c-0.14-0.47-0.28-0.95-0.42-1.42
		c-0.04-0.46-0.07-0.93-0.11-1.39c0.28-0.89,0.23-1.72-0.41-2.45c-0.05-0.43-0.11-0.87-0.17-1.3c0,0,0,0,0,0
		c0.26-0.87,0.35-1.73-0.28-2.5c-0.96-5.22,0.46-10.71-1.73-15.8c-0.85,0.6-1.68,0.93-2.52,1.04c-0.34,0.05-0.67,0.06-1.01,0.04
		c0.34,0.02,0.68,0.01,1.01-0.04c0.84-0.11,1.67-0.44,2.52-1.04c0.35-1.27,0.7-2.54,1.05-3.82c1.33-6.65,1.51-13.51,3.63-20.02
		c-0.41-0.45-1.01-0.83-1.14-1.38c0.14,0.54,0.73,0.93,1.14,1.38c0.09-0.63,0.18-1.26,0.27-1.9c1.72-3.18,2.57-6.67,3.55-10.11
		c-1.37-0.08-2.61-0.33-3.29-1.17c0.69,0.85,1.92,1.09,3.29,1.17c1.61-2.4,3.63-4.66,2.67-7.92c2.39-0.02,2.67-2.23,3.46-3.66
		c4.33-7.8,10.2-14.38,16.19-20.87c0.48-0.27,0.95-0.55,1.43-0.82c-1.34,7.03-5.84,13.12-6.09,20.47c-2,6.1-3.21,12.21-0.26,18.39
		c4.08,6.5,10.75,10.54,15.54,16.35c0.31,0.38,0.66,0.74,1.03,1.06c5.41,4.79,7.42,10.26,3.38,16.93c1.13-0.03,2.56,0.08,3.42-0.49
		c-0.86,0.56-2.29,0.46-3.42,0.49c-0.95,1.12-2.25,2.09-2.79,3.38c-1.85,4.45-4.77,5.11-8.69,2.85c-1.74-1.01-3.86-1.16-3.45,1.19
		c0.64,3.59-1.32,7.01-0.09,10.49c-1.04,0.53-1.83,1.2-2.38,2.35c-5.05,10.69-1.64,23.07,8.29,29.79
		c6.22,6.05,13.19,11.07,20.91,15.04c0.1-0.14,0.21-0.28,0.31-0.42c0,0,0,0,0,0c-0.1,0.14-0.21,0.28-0.31,0.42
		c-0.01,3.25,2.62,4.81,4.45,6.84c1.54,1.7,2.02,2.84-0.53,4.07c-4.53,2.19-8.93,4.66-13.43,6.93
		C58.72,213.35,57.12,211.61,55.76,210z M49.45,172.19c-0.18,0-0.35-0.01-0.51-0.02c0,0-0.03-0.04-0.07-0.08l0.07,0.08
		C49.1,172.19,49.27,172.19,49.45,172.19z M96.22,225.86c-3.43-0.69-6.7-2.27-10.33-1.82c-1.58,1.59-3.34,2.64-5.2,3.36
		c1.86-0.72,3.62-1.77,5.2-3.36c-4.55-1.83-9.1-3.65-13.66-5.48c-0.86-0.47-1.68-1.03-2.58-1.4c-0.91-0.37-2.23-0.5-1.97-1.73
		c0.18-0.81,1.09-1.71,1.9-2.09c2.97-1.4,6.02-2.64,9.07-3.88c2.25-0.91,3.99-0.84,5.24,1.86c0.88,1.89,2.63,3.37,3.95,5.06
		c0.92,1.17,2.02,0.93,3.12,0.43c1.63-0.74,0.88-1.87,0.35-2.88c-0.76-1.47-1.26-3.26-2.42-4.3c-4.03-3.61-1.68-5.02,1.77-6.66
		c2.36-1.12,5.2-0.91,7.23-2.79c2.27-0.25,3.72-1.96,5.53-3.05l0.09,0.22c1.31-2.65,0.36-3.74-1.58-4.15
		c1.94,0.41,2.89,1.5,1.58,4.15c5.31-1.61,9.96-4.66,15-6.84c-0.35-1.23-1.06-2.48-0.35-3.52c-0.7,1.04,0.01,2.29,0.35,3.52
		c0.38,0.3,0.75,0.6,1.12,0.9c-1.65,4.19-0.54,8.52-0.68,12.78c-0.96,7.57-1.93,15.14-2.89,22.72
		C109.42,227.36,102.82,226.58,96.22,225.86z M160.7,216.41c-1.69,0.44-3.19,1.59-4.77,2.42c-2.96,1.23-5.93,2.45-8.89,3.68
		c0,0,0,0,0,0c-3.55,2.05-8.01,1.79-11.3,4.48c-0.31,0.06-0.6,0.15-0.9,0.26c0.21,1.39,1.47,2.63,2.22,3.88
		c-0.75-1.25-2.01-2.5-2.22-3.88c-4.75-0.23-9.59-1.18-13.94,1.77c-0.59-1.55-1.98-1.82-3.36-2.1c0.45-1.6,1.64-2.84,2.28-4.28
		c1.87-4.21,4.91-7.85,5.98-12.44c0,0,0.24-0.09,0.24-0.09c1.26-0.7,2.9-0.7,3.81-2.06c0.99-0.75,1.96-1.51,2.31-2.79
		c0,0,0,0.01,0,0.01c0.28,0.01,0.51-0.09,0.68-0.32c0.54-0.2,1.09-0.41,1.63-0.61c1.9-1.48,4.22-1.86,6.45-2.47
		c5.48,0.36,10.84,1.05,14.99,5.21c0.21,0.13,0.43,0.25,0.65,0.37c-0.22-0.11-0.44-0.23-0.65-0.37c0.71,3.88,2.91,5.36,6.75,4.22
		C163.83,213.71,163.98,215.55,160.7,216.41z M189.37,213.66C189.37,213.66,189.37,213.66,189.37,213.66c0,0,0.02,0.02,0.03,0.03
		L189.37,213.66z M194.78,188.68c-1.1,1.42-1.98,2.99-2.97,4.5c-0.17,1.52-0.06,2.82,0.65,3.92c-0.72-1.1-0.83-2.39-0.65-3.92
		c-2.01,1.96-4.01,3.92-6.02,5.88c-3.26,2.74-6.83,5.11-9.69,8.35c-1.87,2.12-3.8,2.37-5.42-0.62c-4.46-8.27-9.01-16.5-13.61-24.7
		c-1.08-1.93-1.47-4.51-4.17-5.16c0.17-1.24-0.73-2.53,0.19-3.72c5.04-2.48,10.83,0.28,15.82-2.18c2.02-1,5.99-0.93,3.87-5.31
		c-0.23-0.48,1.2-1.77,1.87-2.69c3.71-0.6,7.02-2.2,10.26-4c0,0,0,0,0,0c3.81-1.95,7.58-2.75,11.54-0.18c1.54,1,3.18-0.05,4.68-0.74
		c2.83-1.32,5.65-2.65,8.48-3.97c0.97-0.27,1.95-0.53,2.93-0.8C209.1,166.37,203,178.05,194.78,188.68z M193.84,146.08l0.09-0.13
		C193.93,145.95,193.89,146.01,193.84,146.08z M208.18,148.5c1.06-2.05,3.86-1.94,4.43-4.01c0.57,0.88,2.05,1.07,1.87,2.5
		C212.79,148.5,210.83,148.91,208.18,148.5z M215.94,120.57c-1.08,6.1,1.1,12.4-1.15,18.42c-0.08,0.21-0.17,0.42-0.25,0.63
		c0.08-0.21,0.17-0.42,0.25-0.63c-2.65,2.1-5.74,2.52-8.99,2.33c0.33-1.32,0.66-2.64,0.99-3.96c0.46-0.12,0.91-0.24,1.37-0.36
		c1.37,0.29,2.01-0.22,1.82-1.65c0.19-1.28,1.2-3.3-1.64-2.13c-1.93,0.8-4.07,1.47-4.78,3.84c-2.15-0.4-3.88,0.79-5.75,1.48
		c-1.32,0.44-2.58,0.94-3.11,2.37c-2.6,0.23-5.04,0.66-5.22,4.04c-0.18,5.17-4.56,7.22-7.62,10.26c-0.98,0.07-1.96,0.13-2.95,0.2
		c-1.92,0.91-3.81,1.87-5.75,2.73c-1.56,0.69-2.92,1.9-4.66-0.3c-2.07-2.62-3.17,0.82-4.77,1.34c0,0,0,0,0,0
		c-3.28,0.65-6.8,1.07-5.91,5.9c-4.02,5.6-7.49,5.96-11.94,1.03c-4.79-5.31-9.77-10.36-16.09-13.87c0,0-0.05-0.12-0.05-0.12
		c-0.26-0.24-0.52-0.48-0.78-0.72c-0.08-0.22-0.23-0.38-0.43-0.48c0.13-0.29,0.17-0.59,0.11-0.9c1.09-0.98,1.43-2.29,1.68-3.65
		c2.48-1.35,3.91-3.61,4.71-6.15c1.25-3.96,4.34-6.47,6.7-9.6c3.63-4.82,9.39-8.13,10.79-14.58c3.51-3,8.8-4.27,9.62-9.89
		c0,0,0,0,0,0c0.79-0.67,0.1-1.22-0.15-1.8c2.24-2.75,5.42-4.67,7-7.99c5.63-0.71,8.35-4.83,10.81-9.24
		c1.11,0.06,2.47,0.81,3.27-0.21c4.38-5.59,12.16-5.99,16.78-11.17c3.46-3.45,4.55-4.85,3.25-6.55c1.3,1.7,0.21,3.09-3.25,6.54
		c5.72,4.38,6.67,11.45,9.73,17.33c0.37,0.7,0.62,1.47,0.93,2.2c0,0,0,0,0,0c1.15,3.92,2.3,7.85,3.45,11.77
		c0.42,2.01,0.84,4.02,1.26,6.03C215.46,115.57,215.7,118.07,215.94,120.57c3.69,0.04,5.73-1.54,6.8-4.24
		C221.66,119.03,219.63,120.61,215.94,120.57z"/>
	<path class="st0" d="M97.77,77.32c0.61,0.63,1.23,1.25,1.84,1.88C99.82,77.76,98.99,77.35,97.77,77.32z"/>
	<path class="st0" d="M15.73,148.53c0.14,0.47,0.28,0.95,0.42,1.42C16.43,149.35,16.25,148.89,15.73,148.53z"/>
</g>
</svg>
