<?xml version="1.0" encoding="utf-8"?>
<!-- Generator: Adobe Illustrator 24.0.0, SVG Export Plug-In . SVG Version: 6.00 Build 0)  -->
<svg version="1.1" id="Layer_1" xmlns="http://www.w3.org/2000/svg" xmlns:xlink="http://www.w3.org/1999/xlink" x="0px" y="0px"
	 viewBox="0 0 380 210.57" style="enable-background:new 0 0 380 210.57;" xml:space="preserve">
<style type="text/css">
	.st0{fill:none;}
</style>
<g>
	<path class="st0" d="M186.44,43.53c6.76,3.09,12.24-0.25,12.23-7.48c0-1.81,0-3.61,0-5.42c-0.02,0-0.04,0-0.05,0
		c0-3.28-0.06-6.57,0.02-9.85c0.08-3.14-1.54-4.49-4.49-4.55c-1.97-0.04-3.94-0.07-5.91,0.01c-2.52,0.11-3.93,1.36-3.92,4.03
		c0.03,6.57-0.01,13.14,0.02,19.71C184.36,41.51,184.84,42.79,186.44,43.53z"/>
	<path class="st0" d="M85.38,132.74c-1.48,0.07-2.96,0.03-4.44,0.03c-3.18,0-4.93,1.44-4.92,4.76c0.02,16.61,0.03,33.22,0.03,49.83
		c0,3.07,1.56,4.51,4.57,4.51c1.64,0,3.3-0.08,4.93,0.06c4.53,0.38,6.16-1.82,6.08-6.15c-0.14-7.73-0.04-15.46-0.05-23.19
		c-0.01-7.89-0.09-15.79,0.03-23.68C91.69,134.52,89.71,132.54,85.38,132.74z"/>
	<path d="M178.5,93.98c3.77,0.08,5.93-0.89,5.81-5.21c-0.19-6.9-0.06-13.81-0.03-20.72c0.03-6.83,0.58-7.39,7.17-7.39
		c6.38,0,6.94,0.59,6.97,7.64c0.03,6.58,0.19,13.16-0.04,19.73c-0.16,4.58,1.8,6.01,6.17,6c4.36-0.01,6.77-0.98,6.68-6.02
		c-0.23-12.33-0.07-24.66-0.07-37c0.01,0,0.01,0,0.02,0c0-5.92,0.01-11.84,0-17.76c-0.02-6.91,0.2-13.82-0.17-20.71
		c-0.44-8.26-4.43-11.85-12.5-11.92c-4.44-0.04-8.88-0.03-13.32,0c-9.28,0.06-13.33,3.71-13.41,13.1
		c-0.19,24.99-0.03,49.99-0.14,74.98C171.62,93.85,174.76,93.9,178.5,93.98z M188.24,16.23c1.97-0.09,3.94-0.05,5.91-0.01
		c2.95,0.06,4.56,1.42,4.49,4.55c-0.08,3.28-0.02,6.57-0.02,9.85c0.02,0,0.04,0,0.05,0c0,1.81,0,3.61,0,5.42
		c0.01,7.24-5.47,10.57-12.23,7.48c-1.61-0.73-2.09-2.01-2.1-3.56c-0.03-6.57,0-13.14-0.02-19.71
		C184.31,17.59,185.73,16.34,188.24,16.23z"/>
	<path d="M226.32,47.35c0,13.15-0.02,26.29,0.01,39.44c0.02,6.4,0.7,6.93,5.86,7.19c5.85,0.3,5.68-3.44,5.66-7.44
		c-0.05-12.82-0.04-25.64,0.01-38.46c0.01-1.38-0.57-3.46,1.21-3.86c1.95-0.43,2.01,1.8,2.47,3.05
		c5.08,13.88,10.3,27.72,14.99,41.73c1.64,4.9,4.82,5.02,8.79,4.89c4.32-0.14,4.3-3.31,4.54-6.26c0.18-2.13,0.19-4.27,0.19-6.4
		c0.01-23.5,0.01-47,0.01-70.5c0-2.14-0.01-4.27-0.1-6.41c-0.08-1.74-0.57-3.1-2.62-3.62c-6.03-1.53-8.71,0.39-8.73,6.59
		c-0.04,12,0.04,23.99-0.05,35.99c-0.01,1.99,1.03,5.16-1.39,5.62c-2.08,0.4-2.03-2.9-2.67-4.61c-4.82-12.93-9.51-25.9-14.28-38.85
		c-1.77-4.8-3.9-5.65-10.21-4.81c-4.51,0.6-3.66,3.97-3.68,6.77C226.27,20.73,226.31,34.04,226.32,47.35z"/>
	<path d="M203.03,193.73c-8.04-0.06-8.22-0.33-8.19-8.34c0.09-20.86-0.01-41.73,0.21-62.59c0.05-5.08-2.45-5.99-6.73-6
		c-4.3-0.02-6.78,0.89-6.69,5.99c0.24,13.63,0.08,27.27,0.07,40.91c0,13.47,0.11,26.95-0.06,40.42c-0.05,4.28,1.12,6.36,5.83,6.22
		c8.54-0.26,17.08-0.06,25.63-0.06c2.04,0,3.89-0.15,4.68-2.62c2.94-9.29-0.27-13.89-9.82-13.92
		C206.32,193.73,204.67,193.74,203.03,193.73z"/>
	<path d="M269.84,123.15c-0.05,26.79-0.09,53.59-0.02,80.38c0.02,6.03,1.12,6.62,6.97,6.82c5.28,0.18,5.28-3.02,5.26-6.73
		c-0.06-13.31-0.05-26.63,0.01-39.94c0.01-1.33-0.73-3.48,1.23-3.73c1.7-0.22,1.99,1.89,2.51,3.22c1.91,4.9,3.74,9.83,5.62,14.74
		c3.53,9.2,7.02,18.42,10.65,27.59c1.87,4.73,4.61,5.75,10.92,4.7c4.52-0.75,3.35-4.26,3.37-6.97c0.1-13.15,0.05-26.3,0.05-39.45
		c-0.01,0-0.01,0-0.02,0c0-13.64,0.02-27.29-0.01-40.93c-0.01-2.26,0.3-4.7-2.65-5.7c-6.06-2.04-9.59,0.32-9.61,6.62
		c-0.04,12.33,0,24.66-0.05,36.99c-0.01,1.4,0.56,3.55-1.09,3.94c-2.11,0.5-2.3-1.94-2.86-3.3c-2.35-5.78-4.53-11.64-6.79-17.45
		c-3.04-7.81-6.08-15.62-9.17-23.41c-2.25-5.68-7.18-3.46-11.11-3.39C269.17,117.2,269.85,120.64,269.84,123.15z"/>
	<path d="M349.26,93.92c6.25-0.04,12.5,0.08,18.74,0c12.58-0.15,12.09,2.3,11.9-12.94c-0.04-3.35-1.77-4.68-4.96-4.67
		c-4.44,0.01-8.88-0.08-13.31-0.12c-3.24-0.03-4.78-1.55-4.68-4.88c0.12-4.11,0.08-8.22,0.01-12.33c-0.05-2.9,1.4-4.22,4.17-4.3
		c1.64-0.05,3.29-0.09,4.93-0.09c8.93-0.03,9.08-0.17,8.91-9.09c-0.02-0.82-0.06-1.64-0.07-2.46c-0.05-2.85-1.58-4.16-4.35-4.2
		c-2.96-0.05-5.92-0.11-8.87-0.16c-3.21-0.05-4.88-1.54-4.72-4.88c0.07-1.48-0.03-2.96-0.01-4.44c0.12-12.52-1.24-11.37,11.34-11.51
		c12.28-0.14,11.76,2.4,11.63-12.66c-0.03-3.41-1.74-4.64-4.96-4.57c-4.11,0.09-8.22,0.02-12.33,0.03c-4.44,0-8.88,0.07-13.32-0.02
		c-3.3-0.07-4.83,1.37-4.83,4.69c0.03,27.95,0.03,55.9,0,83.85C344.47,92.45,345.98,93.94,349.26,93.92z"/>
	<path d="M290.89,94.03c4.61,0.02,5.98-1.95,5.93-6.28c-0.16-12.99-0.08-25.98-0.02-38.97c0.01-1.52-0.82-3.98,1.08-4.33
		c2.34-0.43,2.07,2.42,2.89,3.88c0.24,0.42,0.31,0.93,0.47,1.4c4.86,13.45,9.79,26.88,14.54,40.37c1.81,5.14,5.91,3.82,9.49,3.65
		c3.51-0.17,3.31-3.08,3.31-5.55c0.02-27.3-0.04-54.6,0.06-81.89c0.02-4.26-1.6-5.78-5.84-5.78c-4.39,0-5.71,1.82-5.66,5.95
		c0.15,12.33,0.08,24.67,0.02,37c-0.01,1.86,0.67,3.92-0.95,5.6c-2.11-0.51-2.08-2.39-2.61-3.84
		c-4.98-13.58-10.04-27.13-14.84-40.77c-1.94-5.49-6.3-3.7-9.94-3.7c-3.91,0-3.48,3.24-3.48,5.82c-0.03,27.13,0.03,54.27-0.07,81.4
		C285.27,92.04,286.46,94.01,290.89,94.03z"/>
	<path d="M347.53,210.18c7.22,0.26,14.47,0.2,21.7,0.01c5.04-0.14,8.69-2.98,9.41-7.87c1.89-12.89,1.66-25.91,0.28-38.82
		c-0.61-5.71-4.11-8.01-9.95-8.18c-4.6-0.13-9.2-0.1-13.81-0.1c-3.24,0-4.85-1.52-4.82-4.81c0.05-4.44,0-8.88,0.08-13.31
		c0.03-1.47,0.13-3.3,1.69-3.84c3.97-1.37,8.15-1.21,12.14-0.23c2.96,0.73,2.06,3.73,2.3,5.9c0.35,3.2,2.61,3.58,5.01,3.32
		c2.82-0.31,7.13,1.72,7.79-2.8c0.78-5.31,1.05-10.84-0.8-16.11c-1.4-3.97-4.35-6.16-8.54-6.33c-3.77-0.16-7.56-0.03-11.34-0.03
		c0-0.02,0-0.03,0-0.05c-3.62,0-7.23,0-10.85,0.01c-0.49,0-0.99,0.05-1.47,0.12c-5.65,0.79-9.34,4.13-9.46,9.61
		c-0.26,11.5-0.28,23.01-0.04,34.52c0.11,5.53,4.39,9.36,9.91,9.65c2.3,0.12,4.6,0.05,6.9,0.07c14.38,0.11,12.73-1.48,12.81,13.05
		c0.06,10.52,0.01,10.39-10.69,10.25c-3.91-0.05-5.92-1.35-5.73-5.4c0.16-3.34-1.5-4.57-4.8-4.67c-8.14-0.25-8.59,0.06-8.58,8.35
		c0,2.3-0.04,4.61,0.13,6.9C337.27,205.57,341.43,209.96,347.53,210.18z"/>
	<path d="M243.21,210.37c6.8-0.29,7.32-0.36,7.32-6.14c0.04-26.92,0.03-53.84,0-80.76c-0.01-6.07-0.67-6.63-6.9-6.61
		c-5.93,0.02-6.51,0.55-6.52,6.43c-0.03,13.3-0.01,26.59-0.01,39.89c0,13.62,0.14,27.25-0.08,40.87
		C236.94,208.7,238.37,210.57,243.21,210.37z"/>
	<path d="M57.33,84.31c0.75,6.55,3.74,9.4,10.27,9.56c5.75,0.14,11.5,0.08,17.26,0.07c10.89-0.03,13.58-2.67,13.67-13.76
		c0.1-12,0.02-23.99,0.02-35.99c0.01,0,0.02,0,0.03,0c0-12.65,0.02-25.31-0.02-37.96c-0.01-2.1,0.21-4.35-2.46-5.33
		C90-1.36,86.09,1.16,86.07,7.54c-0.03,19.06-0.02,38.13-0.01,57.19c0.01,11.52-0.17,11.6-11.52,10.93
		c-3.62-0.21-4.95-1.85-4.87-5.25c0.08-3.28-0.01-6.57-0.01-9.86c0-17.91,0.01-35.83-0.03-53.74c-0.01-2.37,0.53-5.08-2.83-6.01
		c-6.71-1.85-9.67,0.25-9.67,7.1c-0.01,23.83,0,47.66,0.02,71.49C57.16,81.02,57.14,82.68,57.33,84.31z"/>
	<path d="M0.05,162.91c0,11.84-0.14,23.68,0.05,35.52c0.12,7.79,4.05,11.66,11.54,11.81c6.57,0.13,13.16,0.13,19.73,0.01
		c6.59-0.13,10.41-3.73,10.75-10.36c0.28-5.41,0.1-10.85,0.09-16.27c0-1.7-0.29-3.26-2.13-4.07c-5.8-2.52-10.51,0.35-10.64,6.52
		c-0.16,7.47-0.49,7.81-7.85,7.85c-1.32,0.01-2.63-0.03-3.95-0.04c-2.98-0.02-4.67-1.45-4.68-4.48c-0.03-17.26-0.03-34.53,0-51.79
		c0-2.94,1.57-4.36,4.52-4.77c9.24-1.28,11.07-0.06,11.98,9.24c0.45,4.61,3.52,4.42,6.73,4.45c3.19,0.04,6.08-0.24,6.04-4.53
		c-0.04-4.77,0.13-9.54-0.04-14.3c-0.26-7.17-3.57-10.51-10.76-10.74c-6.08-0.2-12.17-0.12-18.25-0.06
		c-9.86,0.09-13.08,3.24-13.15,12.98c-0.08,11.02-0.02,22.03-0.02,33.05C0.03,162.91,0.04,162.91,0.05,162.91z"/>
	<path d="M75.68,116.88c-9.18,0.13-12.49,3.34-12.58,12.55c-0.11,11.51-0.03,23.02-0.04,34.52c0,11.18-0.04,22.36,0.01,33.54
		c0.05,9.79,3,12.74,12.62,12.79c5.1,0.03,10.19,0.03,15.29,0c9.88-0.05,14.23-4.56,14.05-14.52c-0.12-6.41-0.28-12.82-0.31-19.23
		c-0.05-14.8,0.01-29.59-0.06-44.39c-0.06-12.12-3.25-15.29-15.17-15.29C84.89,116.86,80.28,116.82,75.68,116.88z M91.62,138.92
		c-0.12,7.89-0.03,15.79-0.03,23.68c0.01,7.73-0.1,15.46,0.05,23.19c0.08,4.33-1.56,6.52-6.08,6.15c-1.63-0.14-3.29-0.06-4.93-0.06
		c-3.01,0-4.57-1.44-4.57-4.51c0-16.61-0.01-33.22-0.03-49.83c0-3.32,1.75-4.76,4.92-4.76c1.48,0,2.96,0.04,4.44-0.03
		C89.71,132.54,91.69,134.52,91.62,138.92z"/>
	<path d="M12.26,54.59c4.11,0.13,8.22,0.11,12.33,0.08c3.47-0.03,5.15,1.55,5.09,5.08c-0.07,4.44-0.1,8.88,0.01,13.32
		c0.09,3.84-1.83,5.35-5.45,5.23c-1.48-0.05-2.96-0.06-4.44,0.03c-4,0.25-6.3-1.22-6.15-5.59c0.11-3.15-1.79-4.19-4.71-4.37
		c-6.71-0.42-7.72,0.44-7.75,7.24c-0.01,2.47-0.08,4.94,0.07,7.4c0.4,6.69,4.33,10.65,10.99,10.84c6.08,0.17,12.17,0.15,18.25,0.02
		c7.14-0.16,10.59-3.49,10.87-10.62c0.21-5.58,0.04-11.18,0.04-16.77c0.02,0,0.03,0,0.05,0c0-5.26,0.09-10.53-0.02-15.79
		c-0.18-8.61-3.17-11.54-11.67-11.65c-3.78-0.05-7.56-0.07-11.35-0.08c-2.71-0.01-4.49-1.15-4.53-4.02c-0.08-4.77-0.07-9.53,0-14.3
		c0.04-2.55,1.4-3.91,4.05-3.88c1.97,0.02,3.96,0.09,5.92-0.06c3.81-0.29,5.94,1.03,5.91,5.19c-0.03,4.38,3.24,4.17,6.29,4.23
		c3.31,0.06,5.42-1.12,5.38-4.79c-0.03-3.62,0.12-7.24-0.08-10.85C41,4.05,37.82,0.87,31.37,0.68C25.29,0.49,19.2,0.56,13.12,0.64
		C5.1,0.74,1.33,4.44,1.24,12.46c-0.11,10.36-0.1,20.72-0.01,31.08C1.29,50.65,5.05,54.36,12.26,54.59z"/>
	<path d="M118.64,17.88c5.09-0.16,10.19-0.1,15.28,0c4.97,0.1,5.71,1.08,3.86,5.61c-5.66,13.83-11.67,27.53-17.12,41.45
		c-3.01,7.7-7.9,14.85-7.31,23.77c0.25,3.76,1.64,5.29,5.4,5.24c9.04-0.11,18.08-0.01,27.12-0.01c11.35,0,11.34-0.09,10.77-11.68
		c-0.17-3.54-1.61-5.06-5.11-5.02c-5.09,0.06-10.19-0.04-15.28-0.1c-3.61-0.04-5.1-1.17-3.49-5.15c7.28-17.96,14.36-36,21.51-54.02
		c1.46-3.69,2.4-7.43,2.4-11.49c0-4.13-1.35-6.08-5.73-5.89c-5.25,0.23-10.52,0.05-15.78,0.05c0-0.01,0-0.02,0-0.03
		c-3.45,0-6.9,0-10.36,0c-11.99,0.01-11.9,0-11.45,11.95C113.5,16.25,114.78,18,118.64,17.88z"/>
	<path d="M138.2,184.82c-0.04-20.53-0.1-41.05,0.04-61.58c0.03-4.6-1.57-6.6-6.31-6.44c-5.72,0.2-6.69,0.84-6.72,6.47
		c-0.06,13.3-0.02,26.6-0.02,39.9c-0.05,0-0.09,0-0.14,0c0,13.63,0.12,27.26-0.06,40.88c-0.06,4.67,1.59,6.52,6.35,6.3
		c6.39-0.3,12.8-0.07,19.21-0.07c11.76,0,12.15-0.49,11.01-12.2c-0.27-2.79-1.42-4.26-4.25-4.28c-3.45-0.03-6.9-0.05-10.34-0.07
		C138.46,193.7,138.22,193.53,138.2,184.82z"/>
</g>
</svg>
