<svg id="Layer_1" data-name="Layer 1" xmlns="http://www.w3.org/2000/svg" viewBox="0 0 798.81 94.15"><defs><style>.cls-1{fill:none;}</style></defs><title>logohorizontal</title><path class="cls-1" d="M189.12,45.45c6.75,3.09,12.24-.24,12.22-7.48V32.55h-.05c0-3.29-.06-6.57,0-9.86.07-3.13-1.54-4.49-4.49-4.55-2,0-3.94-.07-5.91,0-2.51.11-3.93,1.36-3.91,4,0,6.57,0,13.14,0,19.71A3.51,3.51,0,0,0,189.12,45.45Z" transform="translate(-3.83 -1.86)"/><path class="cls-1" d="M508,18.19c-1.48.07-3,0-4.44,0-3.18,0-4.93,1.44-4.92,4.76q0,24.92,0,49.84c0,3.06,1.56,4.5,4.57,4.51,1.65,0,3.3-.08,4.93.06,4.53.37,6.17-1.82,6.09-6.15-.14-7.73,0-15.46,0-23.19,0-7.89-.09-15.79,0-23.68C514.32,20,512.35,18,508,18.19Z" transform="translate(-3.83 -1.86)"/><path d="M181.17,95.9c3.77.08,5.93-.89,5.81-5.21-.19-6.9-.06-13.81,0-20.71s.58-7.39,7.17-7.4c6.38,0,6.94.59,7,7.64,0,6.58.19,13.16,0,19.73-.16,4.58,1.8,6,6.18,6s6.77-1,6.68-6c-.23-12.33-.08-24.67-.08-37h0c0-5.92,0-11.84,0-17.76,0-6.9.19-13.82-.17-20.71-.44-8.26-4.43-11.85-12.5-11.92-4.44,0-8.88,0-13.32,0-9.28.06-13.33,3.71-13.4,13.1-.19,25,0,50-.14,75C174.29,95.77,177.43,95.82,181.17,95.9Zm9.74-77.75c2-.08,3.94,0,5.91,0,3,.06,4.56,1.42,4.49,4.55-.08,3.29,0,6.57,0,9.86h.05V38c0,7.24-5.47,10.57-12.22,7.48a3.51,3.51,0,0,1-2.1-3.56c0-6.57,0-13.14,0-19.71C187,19.51,188.4,18.26,190.91,18.15Z" transform="translate(-3.83 -1.86)"/><path d="M229,49.27c0,13.15,0,26.3,0,39.44,0,6.4.7,6.93,5.87,7.19,5.84.3,5.68-3.43,5.66-7.44q-.08-19.23,0-38.45c0-1.39-.57-3.47,1.22-3.86,2-.43,2,1.79,2.47,3.05,5.07,13.89,10.3,27.72,15,41.74,1.64,4.9,4.82,5,8.79,4.89,4.32-.14,4.3-3.31,4.54-6.26.18-2.13.19-4.27.19-6.41q0-35.25,0-70.5c0-2.13,0-4.27-.11-6.41-.07-1.73-.56-3.09-2.61-3.61-6-1.53-8.71.38-8.73,6.58,0,12,0,24-.05,36,0,2,1,5.16-1.39,5.63-2.08.39-2-2.9-2.67-4.62-4.82-12.92-9.51-25.9-14.28-38.84-1.77-4.8-3.9-5.65-10.21-4.81-4.51.6-3.67,4-3.68,6.77C228.94,22.65,229,36,229,49.27Z" transform="translate(-3.83 -1.86)"/><path d="M625.67,79.18c-8-.06-8.22-.33-8.19-8.34.09-20.87,0-41.73.21-62.6,0-5.08-2.46-6-6.73-6s-6.78.89-6.69,6c.24,13.63.08,27.27.07,40.91,0,13.47.11,26.94-.06,40.41,0,4.28,1.12,6.37,5.83,6.23,8.53-.26,17.08-.06,25.63-.06,2,0,3.89-.15,4.67-2.62,2.94-9.29-.27-13.89-9.81-13.92Z" transform="translate(-3.83 -1.86)"/><path d="M692.48,8.6q-.08,40.19,0,80.38c0,6,1.12,6.62,7,6.82,5.28.18,5.28-3,5.26-6.74q-.08-20,0-39.94c0-1.33-.73-3.48,1.23-3.73,1.7-.22,2,1.89,2.5,3.22,1.91,4.9,3.74,9.83,5.63,14.74,3.53,9.2,7,18.42,10.65,27.59,1.87,4.73,4.6,5.74,10.91,4.7,4.53-.75,3.35-4.26,3.37-7,.11-13.15,0-26.31,0-39.46h0c0-13.64,0-27.28,0-40.93,0-2.26.3-4.7-2.65-5.7-6.06-2-9.59.32-9.61,6.62,0,12.33,0,24.66,0,37,0,1.4.56,3.55-1.08,3.94-2.11.49-2.3-1.94-2.86-3.3C720.41,41,718.24,35.19,716,29.37Q711.41,17.65,706.8,6c-2.25-5.69-7.18-3.46-11.11-3.4S692.48,6.08,692.48,8.6Z" transform="translate(-3.83 -1.86)"/><path d="M351.94,95.84c6.24,0,12.49.08,18.74,0,12.57-.15,12.09,2.3,11.89-12.95,0-3.35-1.77-4.68-4.95-4.67-4.44,0-8.88-.08-13.32-.12-3.24,0-4.78-1.54-4.68-4.88.12-4.11.08-8.22,0-12.33-.05-2.9,1.39-4.22,4.16-4.3,1.64-.06,3.29-.09,4.93-.09,8.93,0,9.08-.17,8.91-9.1,0-.82-.06-1.64-.07-2.46-.05-2.85-1.58-4.16-4.35-4.21-3,0-5.92-.11-8.88-.16-3.2,0-4.88-1.54-4.71-4.88.07-1.47,0-3,0-4.43.12-12.52-1.24-11.37,11.34-11.52,12.28-.13,11.76,2.4,11.63-12.66,0-3.41-1.74-4.64-5-4.57-4.11.1-8.22,0-12.33,0-4.44,0-8.88.07-13.32,0-3.29-.07-4.83,1.36-4.83,4.69q0,41.93,0,83.84C347.14,94.37,348.65,95.86,351.94,95.84Z" transform="translate(-3.83 -1.86)"/><path d="M293.56,96c4.61,0,6-2,5.93-6.28-.16-13-.08-26,0-39,0-1.52-.81-4,1.09-4.33,2.34-.43,2.07,2.43,2.88,3.88a9.23,9.23,0,0,1,.48,1.4c4.86,13.45,9.79,26.88,14.54,40.37,1.81,5.14,5.91,3.82,9.49,3.65s3.3-3.08,3.31-5.55c0-27.3-.05-54.6.05-81.9,0-4.26-1.59-5.77-5.84-5.78s-5.71,1.83-5.65,6c.15,12.33.08,24.66,0,37,0,1.85.67,3.92-.94,5.59-2.11-.5-2.08-2.39-2.61-3.83-5-13.58-10-27.13-14.84-40.77-1.94-5.5-6.3-3.7-9.94-3.7-3.91,0-3.48,3.24-3.48,5.82,0,27.13,0,54.27-.06,81.4C287.94,94,289.14,95.93,293.56,96Z" transform="translate(-3.83 -1.86)"/><path d="M770.17,95.62c7.22.26,14.46.2,21.69,0,5-.14,8.69-3,9.41-7.87a154.24,154.24,0,0,0,.28-38.82c-.61-5.71-4.11-8-9.95-8.18-4.6-.13-9.21-.1-13.81-.1-3.24,0-4.85-1.52-4.82-4.8,0-4.44,0-8.88.08-13.31,0-1.48.13-3.3,1.69-3.84a21.27,21.27,0,0,1,12.14-.23c3,.73,2.06,3.73,2.3,5.89.35,3.2,2.6,3.59,5,3.32,2.82-.31,7.14,1.72,7.8-2.8.78-5.31,1-10.84-.8-16.11a8.89,8.89,0,0,0-8.55-6.33c-3.77-.15-7.56,0-11.34,0v0H770.44A10.41,10.41,0,0,0,769,2.5c-5.65.79-9.33,4.13-9.46,9.61q-.39,17.25,0,34.51c.11,5.54,4.39,9.36,9.91,9.66,2.3.12,4.6,0,6.9.06,14.38.12,12.73-1.48,12.81,13.06.06,10.52,0,10.39-10.68,10.25-3.91-.05-5.92-1.35-5.73-5.4.16-3.35-1.5-4.57-4.8-4.68-8.14-.25-8.59.07-8.58,8.36,0,2.3,0,4.61.14,6.9C759.91,91,764.06,95.4,770.17,95.62Z" transform="translate(-3.83 -1.86)"/><path d="M665.84,95.82c6.81-.29,7.32-.36,7.33-6.14q0-40.38,0-80.76c0-6.07-.67-6.63-6.9-6.61-5.93,0-6.51.55-6.53,6.43,0,13.3,0,26.6,0,39.89,0,13.63.14,27.25-.08,40.87C659.58,94.15,661,96,665.84,95.82Z" transform="translate(-3.83 -1.86)"/><path d="M60,86.23c.75,6.55,3.73,9.39,10.27,9.56,5.75.14,11.5.08,17.26.06,10.89,0,13.58-2.66,13.67-13.76.09-12,0-24,0-36h0q0-19,0-38c0-2.1.21-4.35-2.46-5.34-6.09-2.24-10,.29-10,6.66q-.06,28.59,0,57.19c0,11.52-.17,11.6-11.53,10.93-3.62-.21-4.95-1.85-4.87-5.25s0-6.58,0-9.86c0-17.92,0-35.83,0-53.74,0-2.38.53-5.09-2.83-6C62.77.86,59.81,3,59.81,9.81q0,35.74,0,71.49A42.6,42.6,0,0,0,60,86.23Z" transform="translate(-3.83 -1.86)"/><path d="M422.69,48.36c0,11.83-.14,23.67.05,35.51.12,7.79,4,11.66,11.54,11.81q9.86.19,19.73,0c6.58-.12,10.41-3.73,10.75-10.35.28-5.41.1-10.85.09-16.27,0-1.71-.29-3.27-2.13-4.07-5.8-2.52-10.51.35-10.64,6.52-.15,7.47-.48,7.81-7.84,7.85-1.32,0-2.63,0-3.95,0-3,0-4.67-1.45-4.68-4.49q0-25.89,0-51.79c0-2.94,1.57-4.36,4.52-4.77,9.25-1.28,11.07-.06,12,9.24.45,4.61,3.52,4.42,6.72,4.46s6.08-.24,6.05-4.53c0-4.77.13-9.54,0-14.3C464.57,6,461.26,2.63,454.08,2.39c-6.08-.19-12.17-.12-18.25-.06-9.86.09-13.09,3.24-13.15,13-.08,11,0,22,0,33.05Z" transform="translate(-3.83 -1.86)"/><path d="M498.32,2.32c-9.18.13-12.49,3.35-12.58,12.56-.11,11.51,0,23,0,34.52,0,11.18,0,22.36,0,33.54.05,9.79,3,12.74,12.62,12.79q7.65,0,15.29,0c9.88,0,14.23-4.56,14-14.52-.12-6.41-.29-12.82-.31-19.23-.06-14.79,0-29.59-.06-44.39-.06-12.12-3.25-15.28-15.17-15.29C507.52,2.3,502.92,2.26,498.32,2.32Zm15.93,22.05c-.12,7.89,0,15.79,0,23.68,0,7.73-.09,15.46,0,23.19.08,4.33-1.56,6.52-6.09,6.15-1.63-.14-3.28-.06-4.93-.06-3,0-4.57-1.45-4.57-4.51q0-24.93,0-49.84c0-3.32,1.74-4.76,4.92-4.76,1.48,0,3,0,4.44,0C512.35,18,514.32,20,514.25,24.37Z" transform="translate(-3.83 -1.86)"/><path d="M14.93,56.51c4.11.13,8.22.11,12.33.08,3.47,0,5.15,1.56,5.09,5.09-.07,4.44-.1,8.88,0,13.32.09,3.84-1.83,5.35-5.45,5.23-1.48,0-3-.06-4.44,0-4,.25-6.3-1.22-6.15-5.59.1-3.15-1.79-4.19-4.71-4.37-6.71-.42-7.72.44-7.75,7.24,0,2.47-.08,4.94.07,7.4.4,6.69,4.33,10.65,11,10.84,6.08.17,12.17.15,18.25,0,7.14-.16,10.6-3.49,10.87-10.62.21-5.58,0-11.18,0-16.77h.05c0-5.27.09-10.53,0-15.79C43.93,44,40.94,41.08,32.43,41c-3.78,0-7.56-.07-11.34-.08-2.72,0-4.49-1.15-4.54-4q-.12-7.15,0-14.3c0-2.56,1.4-3.92,4.05-3.89,2,0,3.95.09,5.91-.06,3.82-.29,5.94,1,5.91,5.19,0,4.38,3.24,4.18,6.29,4.24,3.31.06,5.41-1.12,5.38-4.79S44.22,16,44,12.41C43.67,6,40.49,2.8,34.05,2.6c-6.08-.19-12.17-.12-18.26,0C7.77,2.67,4,6.36,3.91,14.38q-.17,15.54,0,31.08C4,52.57,7.72,56.28,14.93,56.51Z" transform="translate(-3.83 -1.86)"/><path d="M121.31,19.8c5.1-.16,10.2-.1,15.29,0s5.71,1.09,3.86,5.61c-5.67,13.84-11.67,27.53-17.12,41.45-3,7.7-7.9,14.85-7.31,23.77.26,3.76,1.65,5.29,5.4,5.24,9-.11,18.08,0,27.12,0,11.35,0,11.34-.09,10.77-11.68-.18-3.54-1.61-5.07-5.11-5-5.09.06-10.19,0-15.28-.1-3.61,0-5.11-1.16-3.49-5.14,7.28-18,14.36-36,21.51-54a30.71,30.71,0,0,0,2.4-11.48c0-4.13-1.36-6.08-5.73-5.89-5.25.22-10.52.05-15.78.05v0H127.49c-12,0-11.9,0-11.46,12C116.17,18.17,117.46,19.92,121.31,19.8Z" transform="translate(-3.83 -1.86)"/><path d="M560.84,70.26c0-20.52-.1-41.05,0-61.57,0-4.6-1.57-6.61-6.31-6.44-5.72.2-6.69.84-6.72,6.47-.05,13.3,0,26.6,0,39.9h-.14c0,13.63.11,27.26-.07,40.89-.06,4.66,1.59,6.52,6.35,6.3,6.39-.3,12.8-.08,19.21-.08,11.75,0,12.14-.48,11-12.2-.27-2.78-1.43-4.26-4.26-4.28l-10.34-.07C561.09,79.14,560.86,79,560.84,70.26Z" transform="translate(-3.83 -1.86)"/></svg>